<svg viewBox="0 0 627 118" xmlns="http://www.w3.org/2000/svg" fill-rule="evenodd" clip-rule="evenodd" stroke-linejoin="round" stroke-miterlimit="2"><path d="M196.23 64.843l11.192-31.738 11.194 31.738H196.23zm5.658-49.413l-35.417 84.975h15.095l9.716-22.632h32.885l9.361 22.632h15.077L212.96 15.43h-11.07zm62.649 68.078L248.44 37.352h-14.697l25.381 63.054h10.81l25.38-63.054h-14.929l-15.847 46.156zm42.804-20.206c2.275-9.714 9.383-15.734 19.985-15.628 11.03-.086 18.02 5.848 19.773 15.628h-39.758zm19.746-27.49c-29.555-.193-44.58 36.042-23.436 56.631 15.078 15.119 45.456 11.974 53.821-8.878h-14.744c-4.139 4.681-8.41 6.517-15.048 6.517-10.608.042-18.16-6.129-19.773-15.508h51.412c2.977-20.242-11.387-39.071-32.232-38.762m72.46 0c-8.134-.197-13.86 3.42-19.782 9.564v-8.024h-11.983v63.053h13.168v-29.63c0-9.191.655-13.035 2.808-16.457 2.728-4.285 7.24-6.644 12.706-6.644 8.556 0 13.86 3.667 13.86 21.916v30.815h13.165V66.509c0-11.45-1.136-16.942-4.508-21.777-4.042-5.836-10.762-8.92-19.434-8.92m50.855-20.381h-13.166v21.921h-7.703v11.745h7.703v51.309h13.166V49.097h9.48V37.352h-9.48V15.431z" fill="#1e1b4b" fill-rule="nonzero"/><path fill="#1e1b4b" d="M467.145 37.352h13.168v63.054h-13.168zm.119-21.921h13.168v13.168h-13.168z"/><path d="M514.7 62.886c-10.67-3.4-12.043-3.838-12.043-8.345-.03-8.073 12.425-9.515 14.507-1.651h12.998c-.969-10.289-9.958-17.184-20.165-17.077-11.498 0-20.506 8.226-20.506 18.728 0 4.546 1.235 7.972 3.883 10.782 2.72 2.885 7.005 5.243 13.483 7.423 10.336 3.485 12.022 4.836 12.022 9.642 0 4.387-3.614 7.695-8.407 7.695-4.95 0-7.983-2.457-9.735-7.94h-13.44c1.806 12.684 9.775 19.836 22.582 19.803 12.43 0 22.166-9.267 22.166-21.1 0-4.752-1.117-8.071-3.62-10.758-2.634-2.825-6.992-5.113-13.726-7.202" fill="#1e1b4b" fill-rule="nonzero"/><path fill="#1e1b4b" d="M538.62 15.431h13.165v13.168H538.62zm-.119 21.921h13.166v63.054h-13.166z"/><path d="M593.477 90.082c-12.207 0-20.732-8.475-20.732-20.61.064-28.99 40.973-28.94 41.106-.12 0 12.207-8.379 20.73-20.374 20.73m20.848-52.73v11.345l-2.332-3.093c-9.486-14.157-32.853-11.889-43.474-.398-11.897 11.671-12.068 35.797-.09 47.492 7.881 8.603 23.463 11.907 34.263 6.998 4.051-1.672 8.34-6 11.633-9.951v10.661h11.864V37.352h-11.864z" fill="#1e1b4b" fill-rule="nonzero"/><path d="M35.235 98.074c-8.683 0-15.73-7.047-15.73-15.73.879-20.85 30.575-20.844 31.46 0 0 8.683-7.063 15.73-15.73 15.73m0-50.965C15.809 47.109 0 62.917 0 82.344c1.933 46.773 68.554 46.743 70.486 0 0-19.427-15.824-35.235-35.251-35.235" fill="#4f46e5" fill-rule="nonzero"/><path d="M134.064 113.719l-27.583-.218-51.784-89.726L45.94 38.95 32.22 15.175 40.98.012V0h27.45l65.634 113.719z" fill="#4f46e5" fill-rule="nonzero"/></svg>